<svg xmlns="http://www.w3.org/2000/svg" viewBox="0 0 80 80" id="biceps">
  <path d="M5.768 74.575a1.998 1.998 0 0 0 1.713.366c.3-.074 6.754-1.738 9.665-7.476 7.292 2.18 34.535 9.176 49.118-2.916 9.833-8.153 10.372-25.436 6.543-38.945C69.489 13.896 63.24 6.032 56.5 5.082c-.757-.106-2.429-.096-5.453-.04-.582.012-1.056.02-1.306.02h-.09c-5.878 0-10.659 4.779-10.657 10.558-.084 1.806.508 3.427 1.712 4.69 2.09 2.189 5.952 3.3 11.482 3.3h1.196l-4.24 15.84c-2.128-2.152-5.67-4.42-11.15-4.42-5.603 0-10.475 3.925-12.907 6.296-2.921-3.33-9.758-10.257-17.6-12.226A2 2 0 0 0 5 31.04V73a2 2 0 0 0 .768 1.575zM9 33.812c7.81 3.244 14.337 11.655 14.41 11.748.37.483.943.77 1.552.78.602-.022 1.19-.257 1.579-.727.054-.065 5.502-6.584 11.452-6.584 7.504 0 10.059 5.556 10.158 5.78a2.026 2.026 0 0 0 1.982 1.209c.85-.061 1.57-.655 1.789-1.478l5.999-22.413a2.001 2.001 0 0 0-1.932-2.518h-3.801c-4.208 0-7.338-.75-8.588-2.061-.455-.478-.644-1.015-.608-1.834 0-3.668 2.987-6.652 6.658-6.652h.091c.265 0 .766-.008 1.381-.02 1.27-.023 4.24-.081 4.82.001 5.07.715 10.18 7.644 13.016 17.65 3.363 11.866 3.155 27.81-5.247 34.777-14.86 12.324-46.752 1.752-47.072 1.643a2.001 2.001 0 0 0-2.546 1.285c-.93 2.912-3.261 4.667-5.093 5.64V33.812z"></path>
  <path d="M67.998 43.082c.262-5.837-1.02-10.435-1.074-10.627l-3.849 1.088c.046.163 4.469 16.482-6.304 24.88l2.458 3.154c5.382-4.194 8.415-10.59 8.769-18.495z"></path>
</svg>
