<svg xmlns="http://www.w3.org/2000/svg" width="24" height="24" fill="none" viewBox="0 0 24 24" id="bycicle">
  <path stroke="#000" stroke-linecap="round" stroke-width="2" d="M18 16L14.2194 4.65811C14.1114 4.33435 14.3524 4 14.6937 4H20M6 16L7.58555 10.4506C7.83087 9.59196 8.61564 9 9.5086 9H15M6 6H10M22 16C22 18.2091 20.2091 20 18 20C15.7909 20 14 18.2091 14 16C14 13.7909 15.7909 12 18 12C20.2091 12 22 13.7909 22 16ZM10 16C10 18.2091 8.20914 20 6 20C3.79086 20 2 18.2091 2 16C2 13.7909 3.79086 12 6 12C8.20914 12 10 13.7909 10 16Z"></path>
</svg>
