<svg xmlns="http://www.w3.org/2000/svg" viewBox="0 0 24 24" id="delete">
  <path d="m19,5.25h-3.25v-.25c0-1.52-1.23-2.75-2.75-2.75h-2c-1.52,0-2.75,1.23-2.75,2.75v.25h-3.25c-.41,0-.75.34-.75.75s.34.75.75.75h.25v12.25c0,1.52,1.23,2.75,2.75,2.75h8c1.52,0,2.75-1.23,2.75-2.75V6.75h.25c.41,0,.75-.34.75-.75s-.34-.75-.75-.75Zm-9.25-.25c0-.69.56-1.25,1.25-1.25h2c.69,0,1.25.56,1.25,1.25v.25h-4.5v-.25Zm7.5,14c0,.69-.56,1.25-1.25,1.25h-8c-.69,0-1.25-.56-1.25-1.25V6.75h10.5v12.25Z"></path>
  <path d="M10 10.25c-.41 0-.75.34-.75.75v5c0 .41.34.75.75.75s.75-.34.75-.75v-5c0-.41-.34-.75-.75-.75zM14 10.25c-.41 0-.75.34-.75.75v5c0 .41.34.75.75.75s.75-.34.75-.75v-5c0-.41-.34-.75-.75-.75z"></path>
</svg>
