<svg xmlns="http://www.w3.org/2000/svg" width="20.48" height="20.48" fill-rule="evenodd" clip-rule="evenodd" image-rendering="optimizeQuality" shape-rendering="geometricPrecision" text-rendering="geometricPrecision" viewBox="0 0 213.33 213.33" id="distance">
  <g>
    <path fill-rule="nonzero" d="M66.57 109c0,-7.81 -3.17,-14.88 -8.28,-20 -5.12,-5.12 -12.19,-8.28 -20,-8.28 -7.81,0 -14.88,3.17 -20,8.28 -5.12,5.11 -8.28,12.19 -8.28,20 0,10.49 6.82,18.23 14.2,26.59 4.94,5.6 10.1,11.45 14.08,18.69 3.98,-7.23 9.14,-13.08 14.08,-18.69 7.37,-8.36 14.2,-16.1 14.2,-26.59zm-11.81 62.69c-2.15,-1.73 -2.49,-4.87 -0.76,-7.01 1.73,-2.15 4.87,-2.49 7.01,-0.76 5.91,4.76 10.87,7.29 15.11,8.13 3.72,0.74 6.93,0.11 9.78,-1.43 6.57,-3.57 12.08,-12.11 17.58,-20.67l0.05 -0.07c-0.02,-0.02 0.11,-0.17 0.13,-0.2 2.94,-4.56 5.88,-9.11 9.16,-13.19 3.54,-4.41 7.4,-8.17 11.89,-10.6 4.84,-2.62 10.24,-3.7 16.5,-2.45 5.74,1.15 12.13,4.31 19.4,10.17 2.15,1.72 2.49,4.87 0.76,7.01 -1.73,2.15 -4.87,2.48 -7.01,0.76 -5.91,-4.76 -10.87,-7.29 -15.11,-8.14 -3.72,-0.74 -6.93,-0.11 -9.78,1.43 -3.2,1.73 -6.12,4.61 -8.89,8.06 -2.92,3.63 -5.73,7.98 -8.54,12.34 -0.07,0.11 -0.13,0.23 -0.21,0.34l-0.01 0c-6.19,9.62 -12.39,19.23 -21.17,23.99 -4.84,2.62 -10.24,3.7 -16.5,2.44 -5.74,-1.15 -12.13,-4.31 -19.4,-10.17zm120.28 -93.67c2.51,0 4.78,-1.02 6.43,-2.66 1.64,-1.65 2.66,-3.92 2.66,-6.43 0,-2.51 -1.02,-4.78 -2.66,-6.43 -1.64,-1.64 -3.91,-2.66 -6.43,-2.66 -2.51,0 -4.78,1.02 -6.43,2.66 -1.64,1.64 -2.66,3.92 -2.66,6.43 0,2.51 1.02,4.78 2.66,6.43 1.65,1.64 3.92,2.66 6.43,2.66zm13.49 4.41c-3.45,3.45 -8.22,5.59 -13.49,5.59 -5.27,0 -10.04,-2.14 -13.49,-5.59 -3.45,-3.45 -5.59,-8.22 -5.59,-13.49 0,-5.27 2.14,-10.04 5.59,-13.49 3.45,-3.46 8.22,-5.59 13.49,-5.59 5.27,0 10.04,2.13 13.49,5.59 3.46,3.45 5.59,8.22 5.59,13.49 0,5.27 -2.13,10.04 -5.59,13.49zm14.79 -13.2c0,-7.81 -3.17,-14.88 -8.28,-20 -5.11,-5.12 -12.19,-8.28 -20,-8.28 -7.81,0 -14.88,3.17 -20,8.28 -5.11,5.11 -8.28,12.19 -8.28,20 0,10.49 6.82,18.23 14.2,26.59 4.94,5.61 10.1,11.46 14.08,18.69 3.98,-7.23 9.14,-13.08 14.08,-18.69 7.37,-8.36 14.2,-16.1 14.2,-26.59zm-1.21 -27.07c6.93,6.93 11.21,16.5 11.21,27.07 0,14.26 -8.02,23.35 -16.7,33.19 -6.62,7.51 -13.67,15.51 -16.76,26.39 -0.45,1.63 -1.72,2.99 -3.47,3.48 -2.65,0.74 -5.41,-0.8 -6.15,-3.46 -3.09,-10.9 -10.15,-18.91 -16.78,-26.42 -8.67,-9.84 -16.7,-18.94 -16.7,-33.19 0,-10.57 4.29,-20.14 11.21,-27.07 6.93,-6.93 16.5,-11.21 27.06,-11.21 10.57,0 20.14,4.28 27.07,11.21zm-163.81 75.63c2.51,0 4.78,-1.02 6.43,-2.66 1.64,-1.65 2.66,-3.92 2.66,-6.43 0,-2.51 -1.02,-4.78 -2.66,-6.43 -1.65,-1.64 -3.92,-2.66 -6.43,-2.66 -2.51,0 -4.78,1.02 -6.43,2.66 -1.64,1.64 -2.66,3.92 -2.66,6.43 0,2.51 1.02,4.78 2.66,6.43 1.64,1.64 3.91,2.66 6.43,2.66zm13.49 4.41c-3.45,3.45 -8.22,5.59 -13.49,5.59 -5.27,0 -10.04,-2.14 -13.49,-5.59 -3.46,-3.45 -5.59,-8.22 -5.59,-13.49 0,-5.27 2.13,-10.04 5.59,-13.49 3.45,-3.45 8.22,-5.59 13.49,-5.59 5.27,0 10.04,2.14 13.49,5.59 3.45,3.45 5.59,8.22 5.59,13.49 0,5.27 -2.14,10.04 -5.59,13.49zm13.57 -40.27c6.93,6.93 11.21,16.5 11.21,27.07 0,14.26 -8.02,23.35 -16.7,33.19 -6.62,7.51 -13.67,15.51 -16.77,26.39 -0.45,1.63 -1.72,2.99 -3.46,3.48 -2.65,0.74 -5.41,-0.8 -6.15,-3.46 -3.09,-10.9 -10.15,-18.91 -16.78,-26.42 -8.67,-9.84 -16.7,-18.94 -16.7,-33.19 0,-10.57 4.28,-20.14 11.21,-27.07 6.93,-6.93 16.5,-11.21 27.07,-11.21 10.57,0 20.14,4.28 27.06,11.21z"></path>
  </g>
</svg>
