<svg xmlns="http://www.w3.org/2000/svg" viewBox="0 0 32 32" id="dumbbell">
  <path d="m31,9.49c0-.69-.27-1.33-.75-1.82l-.62-.62.62-.62c.49-.49.75-1.13.75-1.82s-.27-1.33-.75-1.82l-1.04-1.04c-1-1-2.63-1-3.63,0l-.62.62-.62-.62c-1-1-2.63-1-3.63,0l-.62.62-.22-.22c-1-1-2.63-1-3.63,0l-1.85,1.85c-.49.49-.75,1.13-.75,1.82s.27,1.33.75,1.82l2.66,2.66-6.73,6.73-2.66-2.66c-.97-.97-2.67-.97-3.63,0l-1.85,1.85c-1,1-1,2.63,0,3.63l.22.22-.62.62c-.49.49-.75,1.13-.75,1.82s.27,1.33.75,1.82l.62.62-.62.62c-.49.49-.75,1.13-.75,1.82s.27,1.33.75,1.82l1.04,1.04c.5.5,1.16.75,1.82.75s1.32-.25,1.82-.75l.62-.62.62.62c.5.5,1.16.75,1.82.75s1.32-.25,1.82-.75l.62-.62.22.22c.5.5,1.16.75,1.82.75s1.32-.25,1.82-.75h0s1.85-1.85,1.85-1.85c.49-.49.75-1.13.75-1.82s-.27-1.33-.75-1.82l-2.66-2.66,6.73-6.73,2.66,2.66c.49.48,1.13.75,1.82.75s1.33-.27,1.82-.75l1.85-1.85h0c1-1,1-2.63,0-3.63l-.22-.22.62-.62c.49-.49.75-1.13.75-1.82ZM5.01,28.83c-.22.22-.58.22-.81,0l-1.04-1.04c-.11-.11-.17-.25-.17-.4s.06-.29.17-.4l.62-.62,1.84,1.84-.62.62Zm4.88,0c-.22.22-.58.22-.81,0l-5.92-5.92c-.11-.11-.17-.25-.17-.4s.06-.29.17-.4l.62-.62,6.72,6.72-.62.62Zm6.49-2.66c0,.15-.06.29-.17.4l-1.85,1.85c-.22.22-.58.22-.81,0L3.57,18.44c-.22-.22-.22-.58,0-.81l1.85-1.85c.11-.11.25-.17.4-.17s.3.06.4.17l9.99,9.99c.11.11.17.25.17.4Zm-2.83-5.89l-1.84-1.84,6.73-6.73,1.84,1.84-6.73,6.73Zm14.87-5.92l-1.85,1.85c-.21.21-.59.21-.81,0L15.78,6.23c-.11-.11-.17-.25-.17-.4s.06-.29.17-.4l1.85-1.85c.11-.11.26-.17.4-.17s.29.06.4.17l9.99,9.99c.22.22.22.58,0,.81Zm.41-4.48l-.62.62-6.72-6.72.62-.62c.22-.22.58-.22.81,0l5.92,5.92c.11.11.17.25.17.4s-.06.29-.17.4Zm0-4.88l-.62.62-1.84-1.84.62-.62c.22-.22.58-.22.81,0l1.04,1.04c.11.11.17.25.17.4s-.06.29-.17.4Z"></path>
</svg>
