<svg xmlns="http://www.w3.org/2000/svg" viewBox="0 0 46 46" id="fast">
  <g id="Icons">
    <path d="M26,7H11a1,1,0,0,0,0,2h7.271a16.066,16.066,0,0,0-3.852,3H5a1,1,0,0,0,0,2h7.782a15.9,15.9,0,0,0-2.731,8H5a1,1,0,0,0,0,2h5.051a15.9,15.9,0,0,0,2.731,8H5a1,1,0,0,0,0,2h9.419a16.066,16.066,0,0,0,3.852,3H11a1,1,0,0,0,0,2H26A16,16,0,0,0,26,7Zm0,30A14,14,0,1,1,40,23,14.015,14.015,0,0,1,26,37Z"></path>
    <path d="M34.506,14.545c-.009-.009-.012-.021-.021-.03s-.021-.012-.03-.021a11.977,11.977,0,0,0-16.91,0c-.009.009-.021.012-.03.021s-.012.021-.021.03a11.977,11.977,0,0,0,0,16.91c.009.009.012.021.021.03s.021.012.03.021a11.977,11.977,0,0,0,16.91,0c.009-.009.021-.012.03-.021s.012-.021.021-.03a11.977,11.977,0,0,0,0-16.91Zm-.775,14.788a.99.99,0,0,0-1.4,1.4A9.948,9.948,0,0,1,26.99,32.95a.991.991,0,0,0-1.98,0,9.948,9.948,0,0,1-5.343-2.219.99.99,0,0,0-1.4-1.4A9.948,9.948,0,0,1,16.05,23.99a.991.991,0,0,0,0-1.98,9.948,9.948,0,0,1,2.219-5.343.99.99,0,0,0,1.4-1.4A9.948,9.948,0,0,1,25.01,13.05a.991.991,0,0,0,1.98,0,9.948,9.948,0,0,1,5.343,2.219.989.989,0,0,0,1.4,1.4A9.948,9.948,0,0,1,35.95,22.01a.991.991,0,0,0,0,1.98A9.948,9.948,0,0,1,33.731,29.333Z"></path>
    <path d="M30 22H27.394A1.713 1.713 0 0 0 27 21.606V18a1 1 0 0 0-2 0v3.606A1.716 1.716 0 1 0 27.394 24H30a1 1 0 0 0 0-2ZM5 19H7a1 1 0 0 0 0-2H5a1 1 0 0 0 0 2ZM5 29H7a1 1 0 0 0 0-2H5a1 1 0 0 0 0 2Z"></path>
  </g>
</svg>
