<svg xmlns="http://www.w3.org/2000/svg" width="32" height="32" fill="none" viewBox="0 0 32 32" id="recent">
  <path fill="#000" d="M3 16C3 8.8203 8.8203 3 16 3 16.6315 3 17.252 3.04496 17.8584 3.1317 18.4051 3.2099 18.9117 2.8301 18.9899 2.28338 19.0681 1.73666 18.6883 1.23006 18.1416 1.15185 17.4416 1.05173 16.7266 1 16 1 7.71573 1 1 7.71573 1 16 1 24.2843 7.71573 31 16 31 16.7266 31 17.4416 30.9483 18.1416 30.8481 18.6883 30.7699 19.0681 30.2633 18.9899 29.7166 18.9117 29.1699 18.4051 28.7901 17.8584 28.8683 17.252 28.955 16.6315 29 16 29 8.8203 29 3 23.1797 3 16zM23 2C21.8954 2 21 2.89543 21 4 21 5.10457 21.8954 6 23 6 24.1046 6 25 5.10457 25 4 25 2.89543 24.1046 2 23 2zM27 6C25.8954 6 25 6.89543 25 8 25 9.10457 25.8954 10 27 10 28.1046 10 29 9.10457 29 8 29 6.89543 28.1046 6 27 6zM29 11C27.8954 11 27 11.8954 27 13 27 14.1046 27.8954 15 29 15 30.1046 15 31 14.1046 31 13 31 11.8954 30.1046 11 29 11zM29 17C27.8954 17 27 17.8954 27 19 27 20.1046 27.8954 21 29 21 30.1046 21 31 20.1046 31 19 31 17.8954 30.1046 17 29 17zM25 24C25 22.8954 25.8954 22 27 22 28.1046 22 29 22.8954 29 24 29 25.1046 28.1046 26 27 26 25.8954 26 25 25.1046 25 24zM21 28C21 26.8954 21.8954 26 23 26 24.1046 26 25 26.8954 25 28 25 29.1046 24.1046 30 23 30 21.8954 30 21 29.1046 21 28z"></path>
  <path fill="#000" d="M16 7C16.5523 7 17 7.44772 17 8V16C17 16.2652 16.8946 16.5196 16.7071 16.7071L12.7071 20.7071C12.3166 21.0976 11.6834 21.0976 11.2929 20.7071C10.9024 20.3166 10.9024 19.6834 11.2929 19.2929L15 15.5858V8C15 7.44772 15.4477 7 16 7Z"></path>
</svg>
