<svg xmlns="http://www.w3.org/2000/svg" width="101" height="101" fill="none" id="running">
  <path fill="#000" stroke="#000" stroke-width="2.2" d="M8.584 61.554h8.627a1.5 1.5 0 0 0 0-3H8.584a1.5 1.5 0 0 0 0 3zm-.041 12.085h19.349a1.5 1.5 0 0 0 0-3H8.543a1.5 1.5 0 0 0 0 3zm32.829 9.084H8.584a1.5 1.5 0 0 0 0 3h32.788a1.5 1.5 0 0 0 0-3zm35.575-24.17h-5.56L59.139 28.942a1.498 1.498 0 0 0-1.386-.927c-16.996 0-21.75-15.796-21.943-16.466a1.5 1.5 0 0 0-2.503-.65L14.251 29.956l-5.818 5.448a1.5 1.5 0 0 0-.033 2.159l48.026 47.722c.281.279.661.436 1.058.436H93.33a1.5 1.5 0 0 0 1.5-1.5v-7.781c.001-9.863-8.021-17.885-17.883-17.885zm-43.153-43.9c2.128 4.867 8.517 15.85 22.95 16.343l2.431 5.879h-8.124a1.5 1.5 0 0 0 0 3h9.158c.068 0 .133-.011.198-.02l2.016 4.875h-8.716a1.5 1.5 0 0 0 0 3h9.158c.262 0 .505-.073.719-.192l2.087 5.045h-8.596a1.5 1.5 0 0 0 0 3h9.159c.222 0 .431-.051.621-.138l2.143 5.182c.231.56.778.927 1.386.927h6.562c7.7 0 14.052 5.878 14.808 13.382l-30.174-.037-44.164-43.867 16.378-16.378zM91.831 82.72H58.103l-46.484-46.19 3.643-3.41 44.644 44.344c.28.278.659.435 1.055.436l30.871.038-.001 4.782z"></path>
</svg>
