<svg xmlns="http://www.w3.org/2000/svg" viewBox="0 0 64 64" id="sad">
  <path d="M52.0623,15.5067a25.872,25.872,0,0,0-4.3962-4.4454,23.291,23.291,0,0,0-13.8606-5.07A28.7533,28.7533,0,0,0,21.7811,8.3955a26.0164,26.0164,0,0,0-3.99,45.4328,25.0789,25.0789,0,0,0,26.4371.8117,26.2239,26.2239,0,0,0,9.8539-9.69,26.4328,26.4328,0,0,0-2.02-29.4438Zm-.5244,19.6066A20.0912,20.0912,0,0,1,34.945,52.0942a19.4227,19.4227,0,0,1-2.9506.2851c-7.9777.1621-15.8295-4.5293-18.62-12.3147A22.1516,22.1516,0,0,1,18.46,16.98a19.0894,19.0894,0,0,1,5.2852-3.7072,20.0747,20.0747,0,0,1,20.8115,2.4146C50.4163,20.131,52.6426,28.0781,51.5379,35.1133Zm-20.743-1.56c-3.6059-.12-9.6524,1.6335-11.27,5.1367-.3823.8279-.7294,1.6794.0373,2.2886.8732.6938,1.8267.5033,2.9155.1737,1.4635-.4431,5.1474-1.9538,8.1928-1.9874a14.4811,14.4811,0,0,1,7.0664,1.4965c1.2019.6122,2.715,1.69,4.1731,1.1051.9895-.3973.7359-1.6269.3347-2.5809C41.4713,37.3465,37.03,33.7614,30.7949,33.5536Zm-5.404-5.2623a3.0409,3.0409,0,0,0,3.2425-1.2639c.489-.8252.4592-4.0468.2081-5.1462a3.0189,3.0189,0,0,0-1.9005-2.4029c-2.4644-.64-3.42.4411-3.79,2.1464a10.8088,10.8088,0,0,0,.0952,4.5908C23.596,27.6183,24.0213,28.0271,25.3909,28.2913Zm11.6358.3314a3.6379,3.6379,0,0,0,3.5472-.5059c1.1428-1.0477,1.2365-3.4171,1.1117-5.5787a3.0284,3.0284,0,0,0-5.241-1.8215,5.0055,5.0055,0,0,0-1.1005,2.6294C35.0251,25.4109,35.4958,27.8519,37.0267,28.6227Z"></path>
</svg>
