<svg xmlns="http://www.w3.org/2000/svg" enable-background="new 0 0 64 64" viewBox="0 0 64 64" id="stopwatch">
  <path d="M32,19.37c-10.25,0-18.58,8.34-18.58,18.58c0,10.25,8.34,18.58,18.58,18.58s18.58-8.34,18.58-18.58
	C50.58,27.71,42.25,19.37,32,19.37z M32,54.54c-9.14,0-16.58-7.44-16.58-16.58c0-9.15,7.44-16.58,16.58-16.58
	s16.58,7.44,16.58,16.58C48.58,47.1,41.14,54.54,32,54.54z"></path>
  <path d="M40.92,36.96H33V25.82c0-0.55-0.45-1-1-1s-1,0.45-1,1v12.14c0,0.55,0.45,1,1,1h8.92c0.55,0,1-0.45,1-1
	S41.47,36.96,40.92,36.96z"></path>
  <path d="M52.19,21.24c0.28,0.28,0.65,0.42,1.02,0.42c0.37,0,0.74-0.14,1.02-0.42l2.04-2.04c0.27-0.27,0.42-0.64,0.42-1.02
	s-0.15-0.75-0.42-1.02l-4.62-4.62c-0.56-0.56-1.48-0.56-2.04,0l-2.04,2.04c-0.56,0.56-0.56,1.48,0,2.04l0.23,0.23l-2.39,2.39
	c-2.77-1.98-5.99-3.37-9.47-3.97v-4.58h0.98c0.92,0,1.67-0.75,1.67-1.67V4.67c0-0.92-0.75-1.67-1.67-1.67h-9.82
	c-0.92,0-1.67,0.75-1.67,1.67v4.34c0,0.92,0.75,1.67,1.67,1.67h0.98v4.58c-3.49,0.6-6.71,1.99-9.47,3.97l-2.39-2.39l0.23-0.23
	c0.56-0.56,0.56-1.48,0-2.04l-2.04-2.04c-0.56-0.56-1.48-0.56-2.04,0l-4.62,4.62c-0.27,0.27-0.42,0.64-0.42,1.02
	s0.15,0.75,0.42,1.02l2.04,2.04c0.28,0.28,0.65,0.42,1.02,0.42c0.37,0,0.74-0.14,1.02-0.42l0.23-0.23l2.24,2.24
	c-3.32,3.99-5.32,9.12-5.32,14.71C8.96,50.66,19.29,61,32,61s23.04-10.34,23.04-23.04c0-5.59-2-10.71-5.32-14.71l2.24-2.24
	L52.19,21.24z M50.63,14.33l3.84,3.84l-1.26,1.26l-0.54-0.54l-2.76-2.76l-0.54-0.54L50.63,14.33z M27.42,5h9.15v3.67h-1.65h-5.86
	h-1.65V5z M30.07,15v-4.32h3.86V15c-0.06-0.01-0.12,0-0.18-0.01c-0.58-0.04-1.16-0.07-1.75-0.07s-1.17,0.03-1.75,0.07
	C30.19,14.99,30.13,14.99,30.07,15z M9.53,18.17l3.84-3.84l1.26,1.26l-0.54,0.54l-2.76,2.76l-0.54,0.54L9.53,18.17z M14.8,18.25
	L17,20.46c-0.11,0.09-0.21,0.2-0.32,0.3c-0.23,0.21-0.46,0.42-0.68,0.63c-0.13,0.12-0.27,0.24-0.39,0.37l-2.16-2.16L14.8,18.25z
	 M32,59c-11.6,0-21.04-9.44-21.04-21.04c0-5.7,2.29-10.88,5.99-14.67c0.11-0.11,0.22-0.23,0.34-0.34c0.36-0.35,0.73-0.69,1.12-1.02
	c0.12-0.1,0.24-0.2,0.36-0.3c3.04-2.47,6.78-4.11,10.87-4.57c0.16-0.02,0.32-0.03,0.49-0.05c0.61-0.05,1.22-0.09,1.84-0.09
	c0.04,0,0.07,0,0.11,0c0.62,0,1.23,0.04,1.84,0.09c0.16,0.01,0.32,0.03,0.49,0.05c4.09,0.46,7.83,2.1,10.87,4.57
	c0.12,0.1,0.24,0.2,0.36,0.3c0.38,0.33,0.76,0.66,1.12,1.02c0.11,0.11,0.23,0.23,0.34,0.34c3.7,3.79,5.99,8.97,5.99,14.67
	C53.04,49.56,43.6,59,32,59z M48.39,21.76c-0.13-0.13-0.27-0.24-0.39-0.37c-0.22-0.21-0.45-0.43-0.68-0.63
	c-0.11-0.1-0.21-0.2-0.32-0.3l2.21-2.21l1.34,1.34L48.39,21.76z"></path>
</svg>
