<svg xmlns="http://www.w3.org/2000/svg" enable-background="new 0 0 48 48" viewBox="0 0 48 48" id="weight">
  <g>
    <path d="M36.54803,21.65338l1.29083-5.6485C39.10461,10.47101,34.74579,5,29.06543,5c-0.00458,0-10.13477,0-10.13477,0
		c-5.67603,0-10.0437,5.4624-8.77246,11.01025c0.00049,0.0022,0.96393,4.20703,1.29315,5.64368
		C8.69623,24.17859,7,27.52289,7,31.2002C7,37.70654,12.06104,43,18.28174,43h11.43604C35.93848,43,41,37.70654,41,31.2002
		C41,27.52264,39.30347,24.1781,36.54803,21.65338z M35.88965,15.55957c-0.00055,0.00226-0.65442,2.86389-1.07269,4.69427
		c-0.56744-0.39191-1.17535-0.74176-1.80096-1.07043l0.9303-4.06915C34.64502,12.05493,32.21411,9,29.07227,9
		C29.06769,9,27.15955,9,25,9V7c2.15887,0,4.06543,0,4.06543,0C33.4718,7,36.87549,11.24536,35.88965,15.55957z M16.8418,18.3382
		l-0.83887-3.66974C15.58002,12.81836,17.02911,11,18.92773,11c0.01172,0,10.14453,0,10.14453,0
		c1.89642,0,3.34839,1.81604,2.9248,3.66895c-0.00073,0.00336-0.51331,2.24518-0.83887,3.66925C28.97913,17.48846,26.55933,17,24,17
		S19.02087,17.48846,16.8418,18.3382z M12.10742,15.56396C11.11908,11.24756,14.50098,7,18.93066,7C18.93304,7,20.84082,7,23,7v2
		c-2.16217,0-4.07227,0-4.07227,0c-3.15472,0-5.57928,3.02942-4.87402,6.11426c0.00055,0.0025,0.62091,2.71594,0.9303,4.06915
		c-0.62592,0.3288-1.23407,0.67883-1.8017,1.07098L12.10742,15.56396z M29.71777,41H18.28174C12.72949,41,9,35.93262,9,31.2002
		C9,24.47314,15.729,19,24,19c8.27148,0,15,5.47314,15,12.2002C39,36.604,34.83594,41,29.71777,41z"></path>
    <path d="M18.5 33c.55225 0 1-.44775 1-1v-.5567c0 0 1.91895 1.37067 1.91898 1.37069.44421.31709 1.07775.2112 1.39499-.23293.3208-.44922.2168-1.07373-.23291-1.39502l-2.53906-1.81348 2.66504-2.66553c.39062-.39062.39062-1.02344 0-1.41406s-1.02344-.39062-1.41406 0L19.5 27.08594V26c0-.55225-.44775-1-1-1s-1 .44775-1 1v6C17.5 32.55225 17.94775 33 18.5 33zM27.5 33c1.6543 0 3-1.3457 3-3v-1c0-.55225-.44727-1-1-1h-1c-.55273 0-1 .44775-1 1s.44727 1 1 1c0 .55127-.44824 1-1 1s-1-.44873-1-1v-2c0-.55127.44824-1 1-1h2c.55273 0 1-.44775 1-1s-.44727-1-1-1h-2c-1.6543 0-3 1.3457-3 3v2C24.5 31.6543 25.8457 33 27.5 33zM30 35H18c-.55225 0-1 .44775-1 1s.44775 1 1 1h12c.55273 0 1-.44775 1-1S30.55273 35 30 35z"></path>
  </g>
</svg>
